RobotoCondensed-Thin.ufo
<glyph name="ampersand" format="2">
  <advance width="1098"/>
  <unicode hex="0026"/>
  <outline>
    <contour>
      <point x="336" y="762" type="line"/>
      <point x="216" y="645"/>
      <point x="116" y="515"/>
      <point x="116" y="349" type="curve"/>
      <point x="116" y="123"/>
      <point x="256" y="-20"/>
      <point x="486" y="-20" type="curve"/>
      <point x="633" y="-20"/>
      <point x="754" y="65"/>
      <point x="847" y="182" type="curve" smooth="yes"/>
      <point x="857" y="194"/>
      <point x="853" y="187"/>
      <point x="863" y="199" type="curve" smooth="yes"/>
      <point x="940" y="312"/>
      <point x="987" y="448"/>
      <point x="987" y="632" type="curve"/>
      <point x="935" y="632" type="line"/>
      <point x="935" y="273"/>
      <point x="720" y="31"/>
      <point x="486" y="31" type="curve" smooth="yes"/>
      <point x="269" y="31"/>
      <point x="169" y="185"/>
      <point x="169" y="349" type="curve"/>
      <point x="169" y="442"/>
      <point x="196" y="552"/>
      <point x="363" y="726" type="curve" smooth="yes"/>
      <point x="571" y="919" type="line" smooth="yes"/>
      <point x="638" y="979"/>
      <point x="734" y="1093"/>
      <point x="734" y="1213" type="curve"/>
      <point x="734" y="1360"/>
      <point x="650" y="1478"/>
      <point x="496" y="1478" type="curve" smooth="yes"/>
      <point x="336" y="1478"/>
      <point x="234" y="1348"/>
      <point x="234" y="1167" type="curve" smooth="yes"/>
      <point x="234" y="1018"/>
      <point x="308" y="895"/>
      <point x="432" y="727" type="curve" smooth="yes"/>
      <point x="973" y="0" type="line"/>
      <point x="1036" y="0" type="line"/>
      <point x="422" y="826" type="line" smooth="yes"/>
      <point x="331" y="951"/>
      <point x="288" y="1067"/>
      <point x="288" y="1169" type="curve" smooth="yes"/>
      <point x="288" y="1310"/>
      <point x="360" y="1426"/>
      <point x="497" y="1426" type="curve" smooth="yes"/>
      <point x="617" y="1426"/>
      <point x="682" y="1324"/>
      <point x="682" y="1213" type="curve"/>
      <point x="682" y="1116"/>
      <point x="618" y="1027"/>
      <point x="546" y="958" type="curve"/>
    </contour>
  </outline>
</glyph>
<glyph name="U" format="2">
  <advance width="1194"/>
  <unicode hex="0055"/>
  <anchor x="610" y="1611" name="top"/>
  <anchor x="597" y="0" name="bottom"/>
  <anchor x="1175" y="1600" name="top_dd"/>
  <anchor x="1175" y="-407" name="bottom_dd"/>
  <anchor x="1175" y="1611" name="top0315"/>
  <anchor x="610" y="1611" name="parent_top"/>
  <outline>
    <contour>
      <point x="969" y="1456" type="line"/>
      <point x="969" y="431" type="line" smooth="yes"/>
      <point x="969" y="148"/>
      <point x="809" y="29"/>
      <point x="597" y="29" type="curve" smooth="yes"/>
      <point x="388" y="29"/>
      <point x="227" y="148"/>
      <point x="227" y="431" type="curve" smooth="yes"/>
      <point x="227" y="1456" type="line"/>
      <point x="175" y="1456" type="line"/>
      <point x="175" y="431" type="line"/>
      <point x="175" y="103"/>
      <point x="355" y="-22"/>
      <point x="597" y="-22" type="curve" smooth="yes"/>
      <point x="839" y="-22"/>
      <point x="1020" y="103"/>
      <point x="1020" y="431" type="curve"/>
      <point x="1020" y="1456" type="line"/>
    </contour>
  </outline>
</glyph>
<glyph name="grave" format="2">
  <advance width="542"/>
  <unicode hex="0060"/>
  <anchor x="361" y="1540" name="mkmktop_acc"/>
  <outline>
    <contour>
      <point x="218" y="1536" type="line"/>
      <point x="144" y="1536" type="line"/>
      <point x="343" y="1271" type="line"/>
      <point x="407" y="1271" type="line"/>
    </contour>
  </outline>
</glyph>
<glyph name="m" format="2">
  <advance width="1594"/>
  <unicode hex="006D"/>
  <anchor x="796" y="1290" name="top"/>
  <anchor x="797" y="10" name="bottom"/>
  <anchor x="796" y="1290" name="marktop"/>
  <anchor x="1575" y="1600" name="top_dd"/>
  <anchor x="1575" y="-407" name="bottom_dd"/>
  <anchor x="1575" y="1290" name="top0315"/>
  <anchor x="796" y="1290" name="parent_top"/>
  <outline>
    <contour>
      <point x="208" y="850" type="line"/>
      <point x="208" y="1082" type="line"/>
      <point x="153" y="1082" type="line"/>
      <point x="153" y="0" type="line"/>
      <point x="208" y="0" type="line"/>
    </contour>
    <contour>
      <point x="200" y="637" type="line"/>
      <point x="207" y="762"/>
      <point x="295" y="1052"/>
      <point x="523" y="1052" type="curve" smooth="yes"/>
      <point x="668" y="1052"/>
      <point x="772" y="982"/>
      <point x="772" y="721" type="curve"/>
      <point x="772" y="0" type="line"/>
      <point x="824" y="0" type="line"/>
      <point x="824" y="719" type="line"/>
      <point x="824" y="994"/>
      <point x="714" y="1102"/>
      <point x="529" y="1102" type="curve" smooth="yes"/>
      <point x="326" y="1102"/>
      <point x="194" y="906"/>
      <point x="174" y="695" type="curve"/>
    </contour>
    <contour>
      <point x="824" y="722" type="line"/>
      <point x="833" y="835"/>
      <point x="931" y="1049"/>
      <point x="1142" y="1052" type="curve" smooth="yes"/>
      <point x="1288" y="1054"/>
      <point x="1390" y="978"/>
      <point x="1390" y="701" type="curve" smooth="yes"/>
      <point x="1390" y="0" type="line"/>
      <point x="1444" y="0" type="line"/>
      <point x="1444" y="701" type="line" smooth="yes"/>
      <point x="1444" y="989"/>
      <point x="1335" y="1102"/>
      <point x="1148" y="1102" type="curve" smooth="yes"/>
      <point x="946" y="1102"/>
      <point x="810" y="938"/>
      <point x="788" y="756" type="curve"/>
    </contour>
  </outline>
</glyph>
<glyph name="v" format="2">
  <advance width="869"/>
  <unicode hex="0076"/>
  <anchor x="438" y="1280" name="top"/>
  <anchor x="434" y="10" name="bottom"/>
  <anchor x="850" y="1600" name="top_dd"/>
  <anchor x="850" y="-407" name="bottom_dd"/>
  <anchor x="850" y="1280" name="top0315"/>
  <anchor x="438" y="1280" name="parent_top"/>
  <outline>
    <contour>
      <point x="427" y="61" type="line"/>
      <point x="412" y="0" type="line"/>
      <point x="459" y="0" type="line"/>
      <point x="815" y="1082" type="line"/>
      <point x="760" y="1082" type="line"/>
    </contour>
    <contour>
      <point x="111" y="1082" type="line"/>
      <point x="55" y="1082" type="line"/>
      <point x="410" y="0" type="line"/>
      <point x="458" y="0" type="line"/>
      <point x="445" y="61" type="line"/>
    </contour>
  </outline>
</glyph>
<glyph name="Aogonek" format="2">
  <advance width="1081"/>
  <unicode hex="0104"/>
  <anchor x="541" y="1611" name="parent_top"/>
  <anchor x="563" y="0" name="bottom"/>
  <anchor x="1062" y="1600" name="top_dd"/>
  <anchor x="1062" y="-407" name="bottom_dd"/>
  <anchor x="1062" y="1611" name="top0315"/>
  <anchor x="541" y="1611" name="top"/>
  <outline>
    <contour>
      <point x="548" y="1413" type="line"/>
      <point x="558" y="1456" type="line"/>
      <point x="510" y="1456" type="line"/>
      <point x="46" y="0" type="line"/>
      <point x="103" y="0" type="line"/>
    </contour>
    <contour>
      <point x="976" y="0" type="line"/>
      <point x="1034" y="0" type="line"/>
      <point x="570" y="1456" type="line"/>
      <point x="525" y="1456" type="line"/>
      <point x="533" y="1413" type="line"/>
    </contour>
    <contour>
      <point x="852" y="486" type="line"/>
      <point x="229" y="486" type="line"/>
      <point x="229" y="436" type="line"/>
      <point x="852" y="436" type="line"/>
    </contour>
    <contour>
      <point x="993" y="19" type="line"/>
      <point x="906" y="-54"/>
      <point x="820" y="-153"/>
      <point x="820" y="-248" type="curve" smooth="yes"/>
      <point x="820" y="-347"/>
      <point x="871" y="-394"/>
      <point x="947" y="-394" type="curve" smooth="yes"/>
      <point x="1001" y="-394"/>
      <point x="1035" y="-370"/>
      <point x="1056" y="-350" type="curve"/>
      <point x="1042" y="-304" type="line"/>
      <point x="1023" y="-322"/>
      <point x="994" y="-343"/>
      <point x="950" y="-343" type="curve" smooth="yes"/>
      <point x="889" y="-343"/>
      <point x="872" y="-295"/>
      <point x="872" y="-248" type="curve" smooth="yes"/>
      <point x="872" y="-150"/>
      <point x="950" y="-74"/>
      <point x="1031" y="0" type="curve"/>
    </contour>
  </outline>
</glyph>
<glyph name="uni023F" format="2">
  <advance width="905"/>
  <unicode hex="023F"/>
  <outline>
    <contour>
      <point x="725" y="263" type="curve" smooth="yes"/>
      <point x="725" y="152"/>
      <point x="631" y="30"/>
      <point x="453" y="30" type="curve" smooth="yes"/>
      <point x="321" y="30"/>
      <point x="199" y="88"/>
      <point x="156" y="275" type="curve"/>
      <point x="101" y="261" type="line"/>
      <point x="246" y="-81" type="line" smooth="yes"/>
      <point x="349" y="-341"/>
      <point x="431" y="-437"/>
      <point x="523" y="-437" type="curve" smooth="yes"/>
      <point x="607" y="-437"/>
      <point x="666" y="-377"/>
      <point x="708" y="-324" type="curve"/>
      <point x="674" y="-286" type="line"/>
      <point x="645" y="-329"/>
      <point x="590" y="-384"/>
      <point x="526" y="-384" type="curve" smooth="yes"/>
      <point x="433" y="-384"/>
      <point x="361" y="-246"/>
      <point x="255" y="33" type="curve"/>
      <point x="311" y="-5"/>
      <point x="368" y="-22"/>
      <point x="453" y="-22" type="curve" smooth="yes"/>
      <point x="651" y="-22"/>
      <point x="776" y="96"/>
      <point x="776" y="263" type="curve" smooth="yes"/>
      <point x="776" y="439"/>
      <point x="674" y="523"/>
      <point x="464" y="578" type="curve" smooth="yes"/>
      <point x="276" y="630"/>
      <point x="188" y="686"/>
      <point x="188" y="834" type="curve" smooth="yes"/>
      <point x="188" y="935"/>
      <point x="263" y="1051"/>
      <point x="445" y="1051" type="curve" smooth="yes"/>
      <point x="624" y="1051"/>
      <point x="722" y="929"/>
      <point x="722" y="793" type="curve"/>
      <point x="775" y="793" type="line"/>
      <point x="775" y="977"/>
      <point x="650" y="1102"/>
      <point x="445" y="1102" type="curve" smooth="yes"/>
      <point x="253" y="1102"/>
      <point x="137" y="981"/>
      <point x="137" y="830" type="curve" smooth="yes"/>
      <point x="137" y="654"/>
      <point x="244" y="586"/>
      <point x="448" y="534" type="curve" smooth="yes"/>
      <point x="672" y="475"/>
      <point x="725" y="363"/>
    </contour>
  </outline>
</glyph>
<glyph name="uni0240" format="2">
  <advance width="887"/>
  <unicode hex="0240"/>
  <outline>
    <contour>
      <point x="107" y="51" type="line"/>
      <point x="107" y="0" type="line"/>
      <point x="288" y="0" type="line" smooth="yes"/>
      <point x="514" y="0"/>
      <point x="483" y="-437"/>
      <point x="696" y="-437" type="curve" smooth="yes"/>
      <point x="767" y="-437"/>
      <point x="820" y="-392"/>
      <point x="863" y="-342" type="curve"/>
      <point x="832" y="-301" type="line"/>
      <point x="795" y="-350"/>
      <point x="751" y="-384"/>
      <point x="697" y="-384" type="curve" smooth="yes"/>
      <point x="537" y="-384"/>
      <point x="552" y="51"/>
      <point x="297" y="51" type="curve" smooth="yes"/>
    </contour>
    <contour>
      <point x="761" y="1037" type="line"/>
      <point x="761" y="1082" type="line"/>
      <point x="729" y="1082" type="line"/>
      <point x="93" y="42" type="line"/>
      <point x="93" y="0" type="line"/>
      <point x="125" y="0" type="line"/>
    </contour>
    <contour>
      <point x="736" y="1082" type="line"/>
      <point x="119" y="1082" type="line"/>
      <point x="119" y="1030" type="line"/>
      <point x="736" y="1030" type="line"/>
    </contour>
  </outline>
</glyph>
<glyph name="uni02AE" format="2">
  <advance width="1128"/>
  <unicode hex="02AE"/>
  <anchor x="596" y="1290" name="top"/>
  <anchor x="596" y="-447" name="bottom"/>
  <anchor x="1109" y="1290" name="top0315"/>
  <anchor x="596" y="1290" name="parent_top"/>
  <outline>
    <contour>
      <point x="914" y="-416" type="line" name="hr00"/>
      <point x="966" y="-416" type="line"/>
      <point x="966" y="1082" type="line"/>
      <point x="914" y="1082" type="line"/>
    </contour>
    <contour>
      <point x="922" y="446" type="line"/>
      <point x="913" y="320"/>
      <point x="822" y="29"/>
      <point x="595" y="29" type="curve" smooth="yes"/>
      <point x="452" y="29"/>
      <point x="351" y="113"/>
      <point x="351" y="422" type="curve" smooth="yes"/>
      <point x="351" y="734" type="line"/>
      <point x="299" y="734" type="line"/>
      <point x="299" y="422" type="line" smooth="yes"/>
      <point x="299" y="106"/>
      <point x="406" y="-20"/>
      <point x="592" y="-20" type="curve" smooth="yes"/>
      <point x="794" y="-20"/>
      <point x="928" y="176"/>
      <point x="949" y="388" type="curve"/>
    </contour>
    <contour>
      <point x="351" y="694" type="line"/>
      <point x="351" y="753" type="line" smooth="yes"/>
      <point x="351" y="978"/>
      <point x="292" y="1101"/>
      <point x="139" y="1101" type="curve" smooth="yes"/>
      <point x="105" y="1101"/>
      <point x="76" y="1094"/>
      <point x="44" y="1079" type="curve"/>
      <point x="55" y="1031" type="line"/>
      <point x="72" y="1040"/>
      <point x="107" y="1050"/>
      <point x="138" y="1050" type="curve" smooth="yes"/>
      <point x="261" y="1050"/>
      <point x="299" y="941"/>
      <point x="299" y="753" type="curve" smooth="yes"/>
      <point x="299" y="694" type="line"/>
    </contour>
  </outline>
</glyph>
<glyph name="ring" format="2">
  <advance width="591"/>
  <unicode hex="02DA"/>
  <anchor x="286" y="1616" name="mkmktop_acc"/>
  <outline>
    <contour>
      <point x="115" y="1382" type="curve"/>
      <point x="115" y="1283"/>
      <point x="191" y="1212"/>
      <point x="288" y="1212" type="curve" smooth="yes"/>
      <point x="385" y="1212"/>
      <point x="462" y="1283"/>
      <point x="462" y="1382" type="curve" smooth="yes"/>
      <point x="462" y="1480"/>
      <point x="385" y="1554"/>
      <point x="288" y="1554" type="curve" smooth="yes"/>
      <point x="191" y="1554"/>
      <point x="115" y="1480"/>
    </contour>
    <contour>
      <point x="170" y="1382" type="curve"/>
      <point x="170" y="1452"/>
      <point x="220" y="1501"/>
      <point x="288" y="1501" type="curve" smooth="yes"/>
      <point x="356" y="1501"/>
      <point x="404" y="1452"/>
      <point x="404" y="1382" type="curve" smooth="yes"/>
      <point x="404" y="1312"/>
      <point x="356" y="1265"/>
      <point x="288" y="1265" type="curve" smooth="yes"/>
      <point x="220" y="1265"/>
      <point x="170" y="1312"/>
    </contour>
  </outline>
</glyph>
<glyph name="uni02E7" format="2">
  <advance width="596"/>
  <unicode hex="02E7"/>
  <outline>
    <contour>
      <point x="410" y="1456" type="line"/>
      <point x="357" y="1456" type="line"/>
      <point x="357" y="0" type="line"/>
      <point x="410" y="0" type="line"/>
    </contour>
    <contour>
      <point x="399" y="753" type="line"/>
      <point x="53" y="753" type="line"/>
      <point x="53" y="703" type="line"/>
      <point x="399" y="703" type="line"/>
    </contour>
  </outline>
</glyph>
<glyph name="uni02FD" format="2">
  <advance width="703"/>
  <unicode hex="02FD"/>
  <outline>
    <contour>
      <point x="578" y="-344" type="line"/>
      <point x="122" y="-344" type="line"/>
      <point x="122" y="-395" type="line"/>
      <point x="578" y="-395" type="line"/>
    </contour>
    <contour>
      <point x="138" y="-51" type="line"/>
      <point x="87" y="-51" type="line"/>
      <point x="87" y="-395" type="line"/>
      <point x="138" y="-395" type="line"/>
    </contour>
    <contour>
      <point x="616" y="-51" type="line"/>
      <point x="567" y="-51" type="line"/>
      <point x="567" y="-395" type="line"/>
      <point x="616" y="-395" type="line"/>
    </contour>
  </outline>
</glyph>
<glyph name="tonos" format="2">
  <advance width="426"/>
  <unicode hex="0384"/>
  <outline>
    <contour>
      <point x="156" y="1267" type="line"/>
      <point x="298" y="1651" type="line"/>
      <point x="223" y="1665" type="line"/>
      <point x="127" y="1276" type="line"/>
    </contour>
  </outline>
</glyph>
<glyph name="Psi" format="2">
  <advance width="1457"/>
  <unicode hex="03A8"/>
  <outline>
    <contour>
      <point x="703" y="0" type="line"/>
      <point x="755" y="0" type="line"/>
      <point x="755" y="1456" type="line"/>
      <point x="703" y="1456" type="line"/>
    </contour>
    <contour>
      <point x="713" y="361" type="line"/>
      <point x="713" y="412" type="line"/>
      <point x="710" y="412" type="line"/>
      <point x="381" y="412"/>
      <point x="227" y="522"/>
      <point x="227" y="866" type="curve"/>
      <point x="227" y="1456" type="line"/>
      <point x="175" y="1456" type="line"/>
      <point x="175" y="868" type="line"/>
      <point x="175" y="535"/>
      <point x="288" y="361"/>
      <point x="710" y="361" type="curve"/>
    </contour>
    <contour>
      <point x="743" y="361" type="line"/>
      <point x="746" y="361" type="line"/>
      <point x="1168" y="361"/>
      <point x="1283" y="535"/>
      <point x="1283" y="868" type="curve"/>
      <point x="1283" y="1456" type="line"/>
      <point x="1231" y="1456" type="line"/>
      <point x="1231" y="866" type="line"/>
      <point x="1231" y="522"/>
      <point x="1075" y="412"/>
      <point x="746" y="412" type="curve"/>
      <point x="743" y="412" type="line"/>
    </contour>
  </outline>
</glyph>
<glyph name="theta" format="2">
  <advance width="1023"/>
  <unicode hex="03B8"/>
  <outline>
    <contour>
      <point x="511" y="-22" type="curve" smooth="yes"/>
      <point x="752" y="-22"/>
      <point x="905" y="119"/>
      <point x="905" y="623" type="curve"/>
      <point x="905" y="923" type="line"/>
      <point x="905" y="1406"/>
      <point x="750" y="1557"/>
      <point x="509" y="1557" type="curve" smooth="yes"/>
      <point x="273" y="1557"/>
      <point x="116" y="1406"/>
      <point x="116" y="923" type="curve"/>
      <point x="116" y="623" type="line"/>
      <point x="116" y="127"/>
      <point x="274" y="-22"/>
    </contour>
    <contour>
      <point x="511" y="30" type="curve" smooth="yes"/>
      <point x="312" y="30"/>
      <point x="168" y="159"/>
      <point x="168" y="623" type="curve" smooth="yes"/>
      <point x="168" y="921" type="line" smooth="yes"/>
      <point x="168" y="1332"/>
      <point x="288" y="1506"/>
      <point x="509" y="1506" type="curve" smooth="yes"/>
      <point x="702" y="1506"/>
      <point x="854" y="1375"/>
      <point x="854" y="921" type="curve" smooth="yes"/>
      <point x="854" y="623" type="line"/>
      <point x="854" y="140"/>
      <point x="706" y="30"/>
    </contour>
    <contour>
      <point x="140" y="776" type="line"/>
      <point x="882" y="776" type="line"/>
      <point x="882" y="833" type="line"/>
      <point x="140" y="833" type="line"/>
    </contour>
  </outline>
</glyph>
<glyph name="iota" format="2">
  <advance width="529"/>
  <unicode hex="03B9"/>
  <anchor x="187" y="1082" name="GRK_top"/>
  <outline>
    <contour>
      <point x="348" y="-20" type="curve" smooth="yes"/>
      <point x="375" y="-20"/>
      <point x="422" y="-18"/>
      <point x="446" y="-9" type="curve"/>
      <point x="438" y="40" type="line"/>
      <point x="407" y="34"/>
      <point x="384" y="31"/>
      <point x="347" y="31" type="curve" smooth="yes"/>
      <point x="276" y="31"/>
      <point x="213" y="66"/>
      <point x="213" y="259" type="curve"/>
      <point x="213" y="1082" type="line"/>
      <point x="159" y="1082" type="line"/>
      <point x="159" y="259" type="line"/>
      <point x="159" y="42"/>
      <point x="231" y="-20"/>
    </contour>
  </outline>
</glyph>
<glyph name="finalsigma" format="2">
  <advance width="921"/>
  <unicode hex="03C2"/>
  <outline>
    <contour>
      <point x="619" y="-348" type="curve"/>
      <point x="668" y="-348" type="line"/>
      <point x="683" y="-310"/>
      <point x="705" y="-231"/>
      <point x="705" y="-161" type="curve" smooth="yes"/>
      <point x="705" y="-36"/>
      <point x="649" y="16"/>
      <point x="480" y="69" type="curve" smooth="yes"/>
      <point x="448" y="79" type="line" smooth="yes"/>
      <point x="287" y="127"/>
      <point x="152" y="197"/>
      <point x="152" y="448" type="curve" smooth="yes"/>
      <point x="152" y="599" type="line" smooth="yes"/>
      <point x="152" y="897"/>
      <point x="253" y="1051"/>
      <point x="478" y="1051" type="curve"/>
      <point x="624" y="1051"/>
      <point x="768.0" y="973"/>
      <point x="768" y="729" type="curve" smooth="yes"/>
      <point x="768" y="725" type="line"/>
      <point x="820" y="725" type="line"/>
      <point x="820" y="729" type="line" smooth="yes"/>
      <point x="820.0" y="1005"/>
      <point x="654" y="1102"/>
      <point x="478" y="1102" type="curve" smooth="yes"/>
      <point x="237" y="1102"/>
      <point x="101" y="941"/>
      <point x="101" y="599" type="curve" smooth="yes"/>
      <point x="101" y="443" type="line" smooth="yes"/>
      <point x="101" y="203"/>
      <point x="213" y="96"/>
      <point x="423" y="33" type="curve" smooth="yes"/>
      <point x="470" y="19" type="line" smooth="yes"/>
      <point x="613" y="-24"/>
      <point x="654" y="-60"/>
      <point x="654" y="-165" type="curve" smooth="yes"/>
      <point x="654" y="-228"/>
      <point x="639" y="-287"/>
    </contour>
  </outline>
</glyph>
<glyph name="uni0418" format="2">
  <advance width="1268"/>
  <unicode hex="0418"/>
  <anchor x="643" y="1612" name="top"/>
  <anchor x="1249" y="1612" name="top0315"/>
  <anchor x="643" y="1612" name="parent_top"/>
  <outline>
    <contour>
      <point x="240" y="87" type="line"/>
      <point x="240" y="1456" type="line"/>
      <point x="187" y="1456" type="line"/>
      <point x="187" y="0" type="line"/>
      <point x="240" y="0" type="line"/>
      <point x="1028" y="1372" type="line"/>
      <point x="1028" y="0" type="line"/>
      <point x="1079" y="0" type="line"/>
      <point x="1079" y="1456" type="line"/>
      <point x="1028" y="1456" type="line"/>
    </contour>
  </outline>
</glyph>
<glyph name="uni048D" format="2">
  <advance width="955"/>
  <unicode hex="048D"/>
  <outline>
    <contour>
      <point x="192" y="669" type="line"/>
      <point x="192" y="616" type="line"/>
      <point x="513" y="616" type="line"/>
      <point x="710" y="616"/>
      <point x="789" y="480"/>
      <point x="789" y="336" type="curve"/>
      <point x="789" y="186"/>
      <point x="710" y="51"/>
      <point x="513" y="51" type="curve"/>
      <point x="224" y="51" type="line"/>
      <point x="224" y="1621" type="line"/>
      <point x="170" y="1621" type="line"/>
      <point x="170" y="0" type="line"/>
      <point x="513" y="0" type="line"/>
      <point x="725" y="0"/>
      <point x="843" y="140"/>
      <point x="843" y="334" type="curve"/>
      <point x="843" y="525"/>
      <point x="725" y="669"/>
      <point x="513" y="669" type="curve"/>
    </contour>
    <contour>
      <point x="502" y="1456" type="line"/>
      <point x="-1" y="1456" type="line"/>
      <point x="-1" y="1405" type="line"/>
      <point x="502" y="1405" type="line"/>
    </contour>
  </outline>
</glyph>
<glyph name="uni048E" format="2">
  <advance width="1126"/>
  <unicode hex="048E"/>
  <outline>
    <contour>
      <point x="689" y="891" type="line"/>
      <point x="650" y="858" type="line"/>
      <point x="909" y="507" type="line"/>
      <point x="947" y="539" type="line"/>
    </contour>
    <contour>
      <point x="571" y="615" type="line"/>
      <point x="837" y="615"/>
      <point x="972" y="775"/>
      <point x="972" y="1031" type="curve"/>
      <point x="972" y="1289"/>
      <point x="835" y="1456"/>
      <point x="571" y="1456" type="curve"/>
      <point x="181" y="1456" type="line"/>
      <point x="181" y="0" type="line"/>
      <point x="235" y="0" type="line"/>
      <point x="235" y="1406" type="line"/>
      <point x="571" y="1406" type="line"/>
      <point x="818" y="1406"/>
      <point x="921" y="1236"/>
      <point x="921" y="1029" type="curve"/>
      <point x="921" y="830"/>
      <point x="818" y="667"/>
      <point x="571" y="667" type="curve"/>
      <point x="199" y="667" type="line"/>
      <point x="199" y="615" type="line"/>
    </contour>
  </outline>
</glyph>
<glyph name="uni1AB5" format="2">
  <unicode hex="1AB5"/>
  <anchor x="-457" y="0" name="_bottom"/>
  <outline>
    <contour>
      <point x="-875" y="-126" type="line"/>
      <point x="-917" y="-126" type="line"/>
      <point x="-757" y="-332" type="line"/>
      <point x="-924" y="-551" type="line"/>
      <point x="-884" y="-551" type="line"/>
      <point x="-737" y="-355" type="line"/>
      <point x="-589" y="-551" type="line"/>
      <point x="-547" y="-551" type="line"/>
      <point x="-717" y="-332" type="line"/>
      <point x="-554" y="-126" type="line"/>
      <point x="-598" y="-126" type="line"/>
      <point x="-736" y="-312" type="line"/>
    </contour>
    <contour>
      <point x="-366" y="-126" type="line"/>
      <point x="-408" y="-126" type="line"/>
      <point x="-248" y="-332" type="line"/>
      <point x="-416" y="-551" type="line"/>
      <point x="-375" y="-551" type="line"/>
      <point x="-228" y="-355" type="line"/>
      <point x="-80" y="-551" type="line"/>
      <point x="-38" y="-551" type="line"/>
      <point x="-207" y="-332" type="line"/>
      <point x="-46" y="-126" type="line"/>
      <point x="-89" y="-126" type="line"/>
      <point x="-227" y="-312" type="line"/>
    </contour>
  </outline>
</glyph>
<glyph name="uni1D03" format="2">
  <advance width="1023"/>
  <unicode hex="1D03"/>
  <anchor x="551" y="1290" name="top"/>
  <anchor x="551" y="0" name="bottom"/>
  <anchor x="1004" y="1290" name="top0315"/>
  <anchor x="551" y="1290" name="parent_top"/>
  <outline>
    <contour>
      <point x="237" y="573" type="line" name="hr00"/>
      <point x="52" y="573" type="line"/>
      <point x="52" y="522" type="line"/>
      <point x="237" y="522" type="line"/>
    </contour>
    <contour>
      <point x="971" y="573" type="line"/>
      <point x="681" y="573" type="line"/>
      <point x="681" y="522" type="line"/>
      <point x="971" y="522" type="line"/>
    </contour>
    <contour>
      <point x="599" y="522" type="line"/>
      <point x="660" y="550" type="line"/>
      <point x="804" y="563"/>
      <point x="887" y="670"/>
      <point x="887" y="804" type="curve"/>
      <point x="887" y="995"/>
      <point x="753" y="1082"/>
      <point x="540" y="1082" type="curve"/>
      <point x="222" y="1082" type="line"/>
      <point x="222" y="0" type="line"/>
      <point x="275" y="0" type="line"/>
      <point x="275" y="1031" type="line"/>
      <point x="540" y="1031" type="line"/>
      <point x="732" y="1031"/>
      <point x="835" y="963"/>
      <point x="835" y="805" type="curve"/>
      <point x="835" y="654"/>
      <point x="737" y="573"/>
      <point x="556" y="573" type="curve"/>
      <point x="256" y="573" type="line"/>
      <point x="256" y="522" type="line"/>
    </contour>
    <contour>
      <point x="599" y="0" type="line"/>
      <point x="791" y="0"/>
      <point x="926" y="97"/>
      <point x="926" y="293" type="curve" smooth="yes"/>
      <point x="926" y="425"/>
      <point x="833" y="539"/>
      <point x="705" y="556" type="curve"/>
      <point x="674" y="573" type="line"/>
      <point x="369" y="573" type="line"/>
      <point x="367" y="522" type="line"/>
      <point x="599" y="522" type="line" smooth="yes"/>
      <point x="768" y="522"/>
      <point x="874" y="427"/>
      <point x="874" y="292" type="curve" smooth="yes"/>
      <point x="874" y="134"/>
      <point x="768" y="51"/>
      <point x="599" y="51" type="curve" smooth="yes"/>
      <point x="253" y="51" type="line"/>
      <point x="248" y="0" type="line"/>
    </contour>
  </outline>
</glyph>
<glyph name="uni1D32" format="2">
  <advance width="733"/>
  <unicode hex="1D32"/>
  <outline>
    <contour>
      <point x="54" y="1676" type="line"/>
      <point x="595" y="1676" type="line"/>
      <point x="595" y="1728" type="line"/>
      <point x="54" y="1728" type="line"/>
    </contour>
    <contour>
      <point x="563" y="651" type="line"/>
      <point x="612" y="651" type="line"/>
      <point x="612" y="1728" type="line"/>
      <point x="563" y="1728" type="line"/>
    </contour>
    <contour>
      <point x="118" y="1136" type="line"/>
      <point x="595" y="1136" type="line"/>
      <point x="595" y="1189" type="line"/>
      <point x="118" y="1189" type="line"/>
    </contour>
    <contour>
      <point x="54" y="651" type="line"/>
      <point x="595" y="651" type="line"/>
      <point x="595" y="703" type="line"/>
      <point x="54" y="703" type="line"/>
    </contour>
  </outline>
</glyph>
<glyph name="uni1D46" format="2">
  <advance width="1181"/>
  <unicode hex="1D46"/>
  <outline>
    <contour>
      <point x="826" y="638" type="curve" smooth="yes"/>
      <point x="972" y="638"/>
      <point x="1078" y="746"/>
      <point x="1078" y="873" type="curve"/>
      <point x="1027" y="873" type="line"/>
      <point x="1027" y="760"/>
      <point x="947" y="690"/>
      <point x="826" y="690" type="curve" smooth="yes"/>
      <point x="695" y="690"/>
      <point x="633" y="763"/>
      <point x="633" y="889" type="curve" smooth="yes"/>
      <point x="633" y="1261" type="line"/>
      <point x="583" y="1212" type="line"/>
      <point x="583" y="891" type="line" smooth="yes"/>
      <point x="583" y="720"/>
      <point x="684" y="638"/>
    </contour>
    <contour>
      <point x="607" y="994" type="line"/>
      <point x="789" y="994" type="line" smooth="yes"/>
      <point x="977" y="994"/>
      <point x="1096" y="1110"/>
      <point x="1096" y="1252" type="curve" smooth="yes"/>
      <point x="1096" y="1379"/>
      <point x="1019" y="1471"/>
      <point x="891" y="1471" type="curve" smooth="yes"/>
      <point x="724" y="1471"/>
      <point x="632" y="1355"/>
      <point x="589" y="1242" type="curve"/>
      <point x="610" y="1185" type="line"/>
      <point x="648" y="1323"/>
      <point x="749" y="1418"/>
      <point x="890" y="1418" type="curve" smooth="yes"/>
      <point x="991" y="1418"/>
      <point x="1045" y="1351"/>
      <point x="1045" y="1253" type="curve" smooth="yes"/>
      <point x="1045" y="1129"/>
      <point x="950" y="1045"/>
      <point x="785" y="1045" type="curve" smooth="yes"/>
      <point x="606" y="1045" type="line"/>
    </contour>
    <contour>
      <point x="347" y="634" type="curve" smooth="yes"/>
      <point x="502" y="634"/>
      <point x="633" y="801"/>
      <point x="633" y="1036" type="curve" smooth="yes"/>
      <point x="633" y="1067" type="line" smooth="yes"/>
      <point x="633" y="1298"/>
      <point x="499" y="1466"/>
      <point x="334" y="1466" type="curve" smooth="yes"/>
      <point x="223" y="1466"/>
      <point x="151" y="1412"/>
      <point x="105" y="1337" type="curve"/>
      <point x="145" y="1308" type="line"/>
      <point x="200" y="1387"/>
      <point x="255" y="1414"/>
      <point x="333" y="1414" type="curve" smooth="yes"/>
      <point x="479" y="1414"/>
      <point x="583" y="1269"/>
      <point x="583" y="1067" type="curve" smooth="yes"/>
      <point x="583" y="1036" type="line" smooth="yes"/>
      <point x="583" y="834"/>
      <point x="493" y="687"/>
      <point x="347" y="687" type="curve" smooth="yes"/>
      <point x="212" y="687"/>
      <point x="138" y="810"/>
      <point x="138" y="975" type="curve" smooth="yes"/>
      <point x="138" y="985" type="line"/>
      <point x="606" y="985" type="line"/>
      <point x="606" y="1034" type="line"/>
      <point x="86" y="1034" type="line"/>
      <point x="86" y="975" type="line" smooth="yes"/>
      <point x="86" y="773"/>
      <point x="192" y="634"/>
    </contour>
  </outline>
</glyph>
<glyph name="uni1D7F" format="2">
  <advance width="1164"/>
  <unicode hex="1D7F"/>
  <anchor x="581" y="1290" name="top"/>
  <anchor x="581" y="0" name="bottom"/>
  <anchor x="1145" y="1290" name="top0315"/>
  <anchor x="581" y="1290" name="parent_top"/>
  <outline>
    <contour>
      <point x="1113" y="641" type="line"/>
      <point x="52" y="641" type="line"/>
      <point x="52" y="590" type="line"/>
      <point x="1113" y="590" type="line"/>
    </contour>
    <contour>
      <point x="582" y="30" type="curve" smooth="yes"/>
      <point x="290" y="30"/>
      <point x="235" y="234"/>
      <point x="235" y="355" type="curve" smooth="yes"/>
      <point x="235" y="647"/>
      <point x="417" y="756"/>
      <point x="417" y="938" type="curve" smooth="yes"/>
      <point x="417" y="1042"/>
      <point x="363" y="1100"/>
      <point x="265" y="1100" type="curve"/>
      <point x="265" y="1059" type="line"/>
      <point x="322" y="1059"/>
      <point x="364" y="1017"/>
      <point x="364" y="939" type="curve" smooth="yes"/>
      <point x="364" y="770"/>
      <point x="182" y="659"/>
      <point x="182" y="357" type="curve" smooth="yes"/>
      <point x="182" y="199"/>
      <point x="262" y="-21"/>
      <point x="582" y="-21" type="curve" smooth="yes"/>
      <point x="901" y="-21"/>
      <point x="981" y="199"/>
      <point x="981" y="357" type="curve" smooth="yes"/>
      <point x="981" y="659"/>
      <point x="798" y="770"/>
      <point x="798" y="939" type="curve" smooth="yes"/>
      <point x="798" y="1017"/>
      <point x="842" y="1059"/>
      <point x="899" y="1059" type="curve"/>
      <point x="899" y="1100" type="line"/>
      <point x="801" y="1100"/>
      <point x="747" y="1042"/>
      <point x="747" y="938" type="curve" smooth="yes"/>
      <point x="747" y="756"/>
      <point x="929" y="647"/>
      <point x="929" y="357" type="curve" smooth="yes"/>
      <point x="929" y="234"/>
      <point x="875" y="30"/>
    </contour>
  </outline>
</glyph>
<glyph name="uni1DDE" format="2">
  <unicode hex="1DDE"/>
  <anchor x="-435" y="1170" name="_top"/>
  <outline>
    <contour>
      <point x="-287" y="1240" type="line"/>
      <point x="-569" y="1240" type="line"/>
      <point x="-569" y="1203" type="line"/>
      <point x="-287" y="1203" type="line"/>
    </contour>
    <contour>
      <point x="-545" y="1798" type="line"/>
      <point x="-583" y="1798" type="line"/>
      <point x="-583" y="1203" type="line"/>
      <point x="-545" y="1203" type="line"/>
    </contour>
  </outline>
</glyph>
<glyph name="uni20AE" format="2">
  <advance width="1076"/>
  <unicode hex="20AE"/>
  <outline>
    <contour>
      <point x="789" y="1039" type="line"/>
      <point x="284" y="858" type="line"/>
      <point x="284" y="802" type="line"/>
      <point x="789" y="986" type="line"/>
    </contour>
    <contour>
      <point x="789" y="845" type="line"/>
      <point x="284" y="661" type="line"/>
      <point x="284" y="607" type="line"/>
      <point x="789" y="789" type="line"/>
    </contour>
    <contour>
      <point x="564" y="1456" type="line"/>
      <point x="512" y="1456" type="line"/>
      <point x="512" y="0" type="line"/>
      <point x="564" y="0" type="line"/>
    </contour>
    <contour>
      <point x="1011" y="1456" type="line"/>
      <point x="64" y="1456" type="line"/>
      <point x="64" y="1406" type="line"/>
      <point x="1011" y="1406" type="line"/>
    </contour>
  </outline>
</glyph>
<glyph name="lessequal" format="2">
  <advance width="931"/>
  <unicode hex="2264"/>
  <outline>
    <contour>
      <point x="122" y="770" type="line"/>
      <point x="88" y="771" type="line"/>
      <point x="88" y="731" type="line"/>
      <point x="799" y="353" type="line"/>
      <point x="799" y="408" type="line"/>
    </contour>
    <contour>
      <point x="799" y="1102" type="line"/>
      <point x="799" y="1156" type="line"/>
      <point x="88" y="779" type="line"/>
      <point x="88" y="739" type="line"/>
      <point x="123" y="738" type="line"/>
    </contour>
    <contour>
      <point x="791" y="58" type="line"/>
      <point x="84" y="58" type="line"/>
      <point x="84" y="7" type="line"/>
      <point x="791" y="7" type="line"/>
    </contour>
  </outline>
</glyph>
<glyph name="uni27EB" format="2">
  <advance width="786"/>
  <unicode hex="27EB"/>
  <outline>
    <contour>
      <point x="168" y="1674" type="line"/>
      <point x="507" y="676" type="line"/>
      <point x="168" y="-322" type="line"/>
      <point x="119" y="-303" type="line"/>
      <point x="452" y="676" type="line"/>
      <point x="119" y="1655" type="line"/>
    </contour>
    <contour>
      <point x="345" y="1674" type="line"/>
      <point x="686" y="676" type="line"/>
      <point x="345" y="-322" type="line"/>
      <point x="298" y="-303" type="line"/>
      <point x="630" y="676" type="line"/>
      <point x="298" y="1655" type="line"/>
    </contour>
  </outline>
</glyph>
<glyph name="uni2C64" format="2">
  <advance width="1170"/>
  <unicode hex="2C64"/>
  <outline>
    <contour>
      <point x="183" y="144" type="line"/>
      <point x="183" y="-89" type="line" smooth="yes"/>
      <point x="183" y="-314"/>
      <point x="240" y="-437"/>
      <point x="393" y="-437" type="curve" smooth="yes"/>
      <point x="426" y="-437"/>
      <point x="456" y="-430"/>
      <point x="488" y="-415" type="curve"/>
      <point x="478" y="-369" type="line"/>
      <point x="461" y="-376"/>
      <point x="425" y="-387"/>
      <point x="394" y="-387" type="curve" smooth="yes"/>
      <point x="273" y="-387"/>
      <point x="235" y="-277"/>
      <point x="235" y="-89" type="curve" smooth="yes"/>
      <point x="235" y="144" type="line"/>
    </contour>
    <contour>
      <point x="183" y="1456" type="line"/>
      <point x="183" y="0" type="line"/>
      <point x="235" y="0" type="line"/>
      <point x="235" y="1406" type="line"/>
      <point x="579" y="1406" type="line" smooth="yes"/>
      <point x="795" y="1406"/>
      <point x="934" y="1267"/>
      <point x="934" y="1036" type="curve" smooth="yes"/>
      <point x="934" y="856"/>
      <point x="827" y="675"/>
      <point x="618" y="675" type="curve" smooth="yes"/>
      <point x="198" y="675" type="line"/>
      <point x="200" y="624" type="line"/>
      <point x="669" y="624" type="line"/>
      <point x="696" y="637" type="line"/>
      <point x="858" y="661"/>
      <point x="985" y="825"/>
      <point x="985" y="1036" type="curve" smooth="yes"/>
      <point x="985" y="1308"/>
      <point x="817" y="1456"/>
      <point x="579" y="1456" type="curve" smooth="yes"/>
    </contour>
    <contour>
      <point x="982" y="0" type="line"/>
      <point x="1037" y="0" type="line"/>
      <point x="1037" y="14" type="line"/>
      <point x="704" y="642" type="line"/>
      <point x="644" y="641" type="line"/>
    </contour>
  </outline>
</glyph>
<glyph name="uni2DE3" format="2">
  <unicode hex="2DE3"/>
  <anchor x="-461" y="1170" name="_top"/>
  <outline>
    <contour>
      <point x="-555" y="1755" type="line"/>
      <point x="-565" y="1561" type="line" smooth="yes"/>
      <point x="-573" y="1359"/>
      <point x="-616" y="1283"/>
      <point x="-644" y="1240" type="curve"/>
      <point x="-641" y="1241" type="line"/>
      <point x="-642" y="1203" type="line"/>
      <point x="-627" y="1203" type="line"/>
      <point x="-586" y="1256"/>
      <point x="-537" y="1347"/>
      <point x="-526" y="1563" type="curve" smooth="yes"/>
      <point x="-519" y="1755" type="line"/>
    </contour>
    <contour>
      <point x="-531" y="1755" type="line"/>
      <point x="-531" y="1716" type="line"/>
      <point x="-329" y="1716" type="line"/>
      <point x="-329" y="1203" type="line"/>
      <point x="-291" y="1203" type="line"/>
      <point x="-291" y="1755" type="line"/>
    </contour>
    <contour>
      <point x="-675" y="1240" type="line"/>
      <point x="-675" y="1040" type="line"/>
      <point x="-640" y="1040" type="line"/>
      <point x="-640" y="1203" type="line"/>
      <point x="-281" y="1203" type="line"/>
      <point x="-281" y="1040" type="line"/>
      <point x="-243" y="1040" type="line"/>
      <point x="-243" y="1240" type="line"/>
    </contour>
  </outline>
</glyph>
<glyph name="uni2DF4" format="2">
  <unicode hex="2DF4"/>
  <anchor x="-461" y="1170" name="_top"/>
  <outline>
    <contour>
      <point x="-277" y="1498" type="line"/>
      <point x="-653" y="1498" type="line"/>
      <point x="-653" y="1459" type="line"/>
      <point x="-277" y="1459" type="line"/>
    </contour>
    <contour>
      <point x="-461" y="1194" type="curve" smooth="yes"/>
      <point x="-332" y="1194"/>
      <point x="-255" y="1296"/>
      <point x="-255" y="1465" type="curve" smooth="yes"/>
      <point x="-255" y="1486" type="line" smooth="yes"/>
      <point x="-255" y="1655"/>
      <point x="-332" y="1759"/>
      <point x="-460" y="1759" type="curve" smooth="yes"/>
      <point x="-587" y="1759"/>
      <point x="-666" y="1655"/>
      <point x="-666" y="1486" type="curve" smooth="yes"/>
      <point x="-666" y="1465" type="line" smooth="yes"/>
      <point x="-666" y="1296"/>
      <point x="-587" y="1194"/>
    </contour>
    <contour>
      <point x="-461" y="1229" type="curve" smooth="yes"/>
      <point x="-576" y="1229"/>
      <point x="-629" y="1332"/>
      <point x="-629" y="1465" type="curve" smooth="yes"/>
      <point x="-629" y="1486" type="line" smooth="yes"/>
      <point x="-629" y="1617"/>
      <point x="-576" y="1722"/>
      <point x="-460" y="1722" type="curve" smooth="yes"/>
      <point x="-343" y="1722"/>
      <point x="-293" y="1617"/>
      <point x="-293" y="1486" type="curve" smooth="yes"/>
      <point x="-293" y="1465" type="line" smooth="yes"/>
      <point x="-293" y="1332"/>
      <point x="-343" y="1229"/>
    </contour>
  </outline>
</glyph>
<glyph name="uniA684" format="2">
  <advance width="2073"/>
  <unicode hex="A684"/>
  <outline>
    <contour>
      <point x="1173" y="1456" type="line"/>
      <point x="1122" y="1456" type="line"/>
      <point x="1122" y="0" type="line"/>
      <point x="1173" y="0" type="line"/>
    </contour>
    <contour>
      <point x="1958" y="1456" type="line"/>
      <point x="1890" y="1456" type="line"/>
      <point x="1371" y="762" type="line"/>
      <point x="664" y="762" type="line"/>
      <point x="660" y="712" type="line"/>
      <point x="1398" y="712" type="line"/>
    </contour>
    <contour>
      <point x="1928" y="0" type="line"/>
      <point x="1997" y="0" type="line"/>
      <point x="1389" y="758" type="line"/>
      <point x="1357" y="716" type="line"/>
    </contour>
    <contour>
      <point x="531" y="720" type="line"/>
      <point x="803" y="720"/>
      <point x="950" y="884"/>
      <point x="950" y="1084" type="curve"/>
      <point x="950" y="1341"/>
      <point x="785" y="1476"/>
      <point x="529" y="1476" type="curve" smooth="yes"/>
      <point x="312" y="1476"/>
      <point x="121" y="1324"/>
      <point x="121" y="1075" type="curve"/>
      <point x="172" y="1075" type="line"/>
      <point x="172" y="1292"/>
      <point x="335" y="1425"/>
      <point x="529" y="1425" type="curve" smooth="yes"/>
      <point x="785" y="1425"/>
      <point x="897" y="1284"/>
      <point x="897" y="1087" type="curve"/>
      <point x="897" y="893"/>
      <point x="789" y="769"/>
      <point x="527" y="769" type="curve" smooth="yes"/>
      <point x="372" y="769" type="line"/>
      <point x="372" y="720" type="line"/>
    </contour>
    <contour>
      <point x="372" y="763" type="line"/>
      <point x="372" y="718" type="line"/>
      <point x="527" y="718" type="line" smooth="yes"/>
      <point x="780" y="718"/>
      <point x="916" y="621"/>
      <point x="916" y="381" type="curve" smooth="yes"/>
      <point x="916" y="163"/>
      <point x="776" y="30"/>
      <point x="529" y="30" type="curve" smooth="yes"/>
      <point x="309" y="30"/>
      <point x="157" y="185"/>
      <point x="157" y="404" type="curve"/>
      <point x="103" y="404" type="line"/>
      <point x="103" y="113"/>
      <point x="326" y="-22"/>
      <point x="529" y="-22" type="curve" smooth="yes"/>
      <point x="785" y="-22"/>
      <point x="969" y="127"/>
      <point x="969" y="385" type="curve" smooth="yes"/>
      <point x="969" y="628"/>
      <point x="827" y="763"/>
      <point x="531" y="763" type="curve" smooth="yes"/>
    </contour>
  </outline>
</glyph>
<glyph name="uniA68E" format="2">
  <advance width="1268"/>
  <unicode hex="A68E"/>
  <outline>
    <contour>
      <point x="186" y="0" type="line"/>
      <point x="1072" y="0" type="line"/>
      <point x="1072" y="1456" type="line"/>
      <point x="1018" y="1456" type="line"/>
      <point x="1018" y="51" type="line"/>
      <point x="240" y="51" type="line"/>
      <point x="240" y="1456" type="line"/>
      <point x="186" y="1456" type="line"/>
    </contour>
    <contour>
      <point x="1041" y="51" type="line"/>
      <point x="1041" y="0" type="line"/>
      <point x="1136" y="0" type="line"/>
      <point x="1156" y="-36"/>
      <point x="1167" y="-73"/>
      <point x="1167" y="-105" type="curve" smooth="yes"/>
      <point x="1167" y="-214"/>
      <point x="1083" y="-287"/>
      <point x="845" y="-287" type="curve" smooth="yes"/>
      <point x="591" y="-287"/>
      <point x="393" y="-213"/>
      <point x="262" y="-124" type="curve"/>
      <point x="236" y="-169" type="line"/>
      <point x="384" y="-268"/>
      <point x="584" y="-337"/>
      <point x="843" y="-337" type="curve" smooth="yes"/>
      <point x="1068" y="-337"/>
      <point x="1219" y="-277"/>
      <point x="1219" y="-105" type="curve" smooth="yes"/>
      <point x="1219" y="-37"/>
      <point x="1191" y="11"/>
      <point x="1170" y="51" type="curve"/>
    </contour>
  </outline>
</glyph>
<glyph name="uniA692" format="2">
  <advance width="1408"/>
  <unicode hex="A692"/>
  <outline>
    <contour>
      <point x="917" y="1456" type="line"/>
      <point x="-13" y="1456" type="line"/>
      <point x="-13" y="1406" type="line"/>
      <point x="917" y="1406" type="line"/>
    </contour>
    <contour>
      <point x="420" y="1456" type="line"/>
      <point x="420" y="1109" type="line"/>
      <point x="420" y="783"/>
      <point x="568" y="661"/>
      <point x="828" y="661" type="curve" smooth="yes"/>
      <point x="955" y="661"/>
      <point x="1083" y="694"/>
      <point x="1197" y="731" type="curve"/>
      <point x="1197" y="784" type="line"/>
      <point x="1074" y="738"/>
      <point x="953" y="713"/>
      <point x="828" y="713" type="curve" smooth="yes"/>
      <point x="598" y="713"/>
      <point x="473" y="827"/>
      <point x="473" y="1109" type="curve" smooth="yes"/>
      <point x="473" y="1456" type="line"/>
    </contour>
    <contour>
      <point x="1168" y="1456" type="line"/>
      <point x="1168" y="0" type="line"/>
      <point x="1221" y="0" type="line"/>
      <point x="1221" y="1456" type="line"/>
    </contour>
  </outline>
</glyph>
<glyph name="uniA718" format="2">
  <advance width="578"/>
  <unicode hex="A718"/>
  <outline>
    <contour>
      <point x="447" y="1371" type="line"/>
      <point x="94" y="660" type="line"/>
      <point x="136" y="636" type="line"/>
      <point x="491" y="1345" type="line"/>
    </contour>
    <contour>
      <point x="87" y="1118" type="curve" smooth="yes"/>
      <point x="87" y="1091"/>
      <point x="108" y="1068"/>
      <point x="133" y="1068" type="curve" smooth="yes"/>
      <point x="160" y="1068"/>
      <point x="181" y="1091"/>
      <point x="181" y="1118" type="curve" smooth="yes"/>
      <point x="181" y="1147"/>
      <point x="160" y="1170"/>
      <point x="133" y="1170" type="curve" smooth="yes"/>
      <point x="108" y="1170"/>
      <point x="87" y="1147"/>
    </contour>
  </outline>
</glyph>
<glyph name="uniA74D" format="2">
  <advance width="1082"/>
  <unicode hex="A74D"/>
  <outline>
    <contour>
      <point x="862" y="678" type="line"/>
      <point x="971" y="678"/>
      <point x="1061" y="783"/>
      <point x="1061" y="914" type="curve" smooth="yes"/>
      <point x="1061" y="1059"/>
      <point x="971" y="1152"/>
      <point x="862" y="1152" type="curve" smooth="yes"/>
      <point x="783" y="1152"/>
      <point x="714" y="1096"/>
      <point x="680" y="1018" type="curve"/>
      <point x="720" y="985" type="line"/>
      <point x="743" y="1056"/>
      <point x="797" y="1103"/>
      <point x="862" y="1103" type="curve" smooth="yes"/>
      <point x="946" y="1103"/>
      <point x="1011" y="1023"/>
      <point x="1011" y="914" type="curve" smooth="yes"/>
      <point x="1011" y="808"/>
      <point x="946" y="732"/>
      <point x="862" y="732" type="curve"/>
    </contour>
    <contour>
      <point x="499" y="-20" type="curve" smooth="yes"/>
      <point x="740" y="-20"/>
      <point x="901" y="204"/>
      <point x="901" y="520" type="curve" smooth="yes"/>
      <point x="901" y="562" type="line" smooth="yes"/>
      <point x="901" y="880"/>
      <point x="740" y="1102"/>
      <point x="498" y="1102" type="curve" smooth="yes"/>
      <point x="259" y="1102"/>
      <point x="97" y="880"/>
      <point x="97" y="562" type="curve" smooth="yes"/>
      <point x="97" y="520" type="line" smooth="yes"/>
      <point x="97" y="204"/>
      <point x="259" y="-20"/>
    </contour>
    <contour>
      <point x="499" y="31" type="curve" smooth="yes"/>
      <point x="276" y="31"/>
      <point x="148" y="259"/>
      <point x="148" y="520" type="curve" smooth="yes"/>
      <point x="148" y="562" type="line" smooth="yes"/>
      <point x="148" y="817"/>
      <point x="276" y="1051"/>
      <point x="498" y="1051" type="curve" smooth="yes"/>
      <point x="720" y="1051"/>
      <point x="848" y="817"/>
      <point x="848" y="562" type="curve" smooth="yes"/>
      <point x="848" y="520" type="line" smooth="yes"/>
      <point x="848" y="259"/>
      <point x="720" y="31"/>
    </contour>
  </outline>
</glyph>
<glyph name="uniA7A9" format="2">
  <advance width="911"/>
  <unicode hex="A7A9"/>
  <outline>
    <contour>
      <point x="816" y="681" type="line"/>
      <point x="71" y="450" type="line"/>
      <point x="82" y="400" type="line"/>
      <point x="827" y="630" type="line"/>
    </contour>
    <contour>
      <point x="731" y="263" type="curve" smooth="yes"/>
      <point x="731" y="152"/>
      <point x="635" y="31"/>
      <point x="459" y="31" type="curve" smooth="yes"/>
      <point x="325" y="31"/>
      <point x="176" y="87"/>
      <point x="164" y="273" type="curve"/>
      <point x="111" y="273" type="line"/>
      <point x="111" y="115"/>
      <point x="234" y="-20"/>
      <point x="459" y="-20" type="curve" smooth="yes"/>
      <point x="657" y="-20"/>
      <point x="783" y="96"/>
      <point x="783" y="263" type="curve"/>
      <point x="783" y="432"/>
      <point x="688" y="519"/>
      <point x="469" y="578" type="curve" smooth="yes"/>
      <point x="234" y="643"/>
      <point x="195" y="720"/>
      <point x="195" y="834" type="curve"/>
      <point x="195" y="935"/>
      <point x="269" y="1051"/>
      <point x="451" y="1051" type="curve" smooth="yes"/>
      <point x="631" y="1051"/>
      <point x="727" y="929"/>
      <point x="727" y="793" type="curve"/>
      <point x="782" y="793" type="line"/>
      <point x="782" y="977"/>
      <point x="658" y="1102"/>
      <point x="451" y="1102" type="curve" smooth="yes"/>
      <point x="259" y="1102"/>
      <point x="143" y="981"/>
      <point x="143" y="830" type="curve"/>
      <point x="143" y="652"/>
      <point x="248" y="585"/>
      <point x="454" y="534" type="curve" smooth="yes"/>
      <point x="679" y="475"/>
      <point x="731" y="362"/>
    </contour>
  </outline>
</glyph>
<glyph name="uniAB50" format="2">
  <advance width="1609"/>
  <unicode hex="AB50"/>
  <outline>
    <contour>
      <point x="756" y="1048" type="curve" smooth="yes"/>
      <point x="756" y="1017"/>
      <point x="778" y="992"/>
      <point x="806" y="992" type="curve" smooth="yes"/>
      <point x="833" y="992"/>
      <point x="855" y="1017"/>
      <point x="855" y="1048" type="curve" smooth="yes"/>
      <point x="855" y="1076"/>
      <point x="833" y="1100"/>
      <point x="806" y="1100" type="curve" smooth="yes"/>
      <point x="778" y="1100"/>
      <point x="756" y="1076"/>
    </contour>
    <contour>
      <point x="1395" y="232" type="line"/>
      <point x="1396" y="0" type="line"/>
      <point x="1448" y="0" type="line"/>
      <point x="1448" y="1082" type="line"/>
      <point x="1395" y="1082" type="line"/>
    </contour>
    <contour>
      <point x="1402" y="445" type="line"/>
      <point x="1397" y="320"/>
      <point x="1308" y="30"/>
      <point x="1079" y="30" type="curve" smooth="yes"/>
      <point x="936" y="30"/>
      <point x="832" y="100"/>
      <point x="832" y="361" type="curve" smooth="yes"/>
      <point x="832" y="823" type="line"/>
      <point x="778" y="823" type="line"/>
      <point x="778" y="363" type="line" smooth="yes"/>
      <point x="778" y="88"/>
      <point x="889" y="-20"/>
      <point x="1073" y="-20" type="curve" smooth="yes"/>
      <point x="1276" y="-20"/>
      <point x="1409" y="176"/>
      <point x="1429" y="387" type="curve"/>
    </contour>
    <contour>
      <point x="779" y="360" type="line"/>
      <point x="771" y="247"/>
      <point x="672" y="33"/>
      <point x="461" y="30" type="curve" smooth="yes"/>
      <point x="316" y="28"/>
      <point x="212" y="104"/>
      <point x="212" y="381" type="curve" smooth="yes"/>
      <point x="212" y="1082" type="line"/>
      <point x="159" y="1082" type="line"/>
      <point x="159" y="381" type="line" smooth="yes"/>
      <point x="159" y="93"/>
      <point x="268" y="-20"/>
      <point x="454" y="-20" type="curve" smooth="yes"/>
      <point x="658" y="-20"/>
      <point x="793" y="144"/>
      <point x="815" y="326" type="curve"/>
    </contour>
  </outline>
</glyph>
<glyph name="uniAB5D" format="2">
  <advance width="629"/>
  <unicode hex="AB5D"/>
  <outline>
    <contour>
      <point x="188" y="1427" type="curve" smooth="yes"/>
      <point x="250" y="1427"/>
      <point x="289" y="1373"/>
      <point x="309" y="1244" type="curve" smooth="yes"/>
      <point x="329" y="1131"/>
      <point x="359" y="1035"/>
      <point x="447" y="1035" type="curve" smooth="yes"/>
      <point x="519" y="1035"/>
      <point x="576" y="1109"/>
      <point x="576" y="1233" type="curve" smooth="yes"/>
      <point x="576" y="1363"/>
      <point x="519" y="1442"/>
      <point x="432" y="1442" type="curve"/>
      <point x="432" y="1404" type="line"/>
      <point x="492" y="1403"/>
      <point x="538" y="1349"/>
      <point x="538" y="1230" type="curve" smooth="yes"/>
      <point x="538" y="1118"/>
      <point x="495" y="1072"/>
      <point x="448" y="1072" type="curve" smooth="yes"/>
      <point x="395" y="1072"/>
      <point x="355" y="1128"/>
      <point x="334" y="1256" type="curve" smooth="yes"/>
      <point x="319" y="1354"/>
      <point x="290" y="1461"/>
      <point x="187" y="1461" type="curve" smooth="yes"/>
      <point x="108" y="1461"/>
      <point x="54" y="1383"/>
      <point x="54" y="1257" type="curve" smooth="yes"/>
      <point x="54" y="1113"/>
      <point x="104" y="1035"/>
      <point x="192" y="1035" type="curve"/>
      <point x="192" y="1071" type="line"/>
      <point x="108" y="1079"/>
      <point x="91" y="1168"/>
      <point x="91" y="1255" type="curve" smooth="yes"/>
      <point x="91" y="1373"/>
      <point x="136" y="1427"/>
    </contour>
    <contour>
      <point x="344" y="1805" type="line"/>
      <point x="294" y="1805" type="line"/>
      <point x="294" y="651" type="line"/>
      <point x="344" y="651" type="line"/>
    </contour>
  </outline>
</glyph>
<glyph name="Eng.smcp" format="2">
  <advance width="1095"/>
  <anchor x="548" y="1320" name="top"/>
  <anchor x="548" y="9" name="bottom"/>
  <anchor x="1076" y="1600" name="top_dd"/>
  <anchor x="1076" y="-407" name="bottom_dd"/>
  <anchor x="1076" y="1320" name="top0315"/>
  <anchor x="548" y="1320" name="parent_top"/>
  <outline>
    <contour>
      <point x="933" y="1165" type="line"/>
      <point x="882" y="1165" type="line"/>
      <point x="882" y="102" type="line"/>
      <point x="214" y="1165" type="line"/>
      <point x="161" y="1165" type="line"/>
      <point x="161" y="0" type="line"/>
      <point x="214" y="0" type="line"/>
      <point x="214" y="1065" type="line"/>
      <point x="882" y="0" type="line"/>
      <point x="933" y="0" type="line"/>
    </contour>
    <contour>
      <point x="881" y="17" type="line"/>
      <point x="881" y="-89" type="line"/>
      <point x="881" y="-279"/>
      <point x="813" y="-388"/>
      <point x="690" y="-388" type="curve" smooth="yes"/>
      <point x="659" y="-388"/>
      <point x="624" y="-377"/>
      <point x="607" y="-369" type="curve"/>
      <point x="595" y="-415" type="line"/>
      <point x="629" y="-428"/>
      <point x="655" y="-437"/>
      <point x="690" y="-437" type="curve" smooth="yes"/>
      <point x="843" y="-437"/>
      <point x="933" y="-314"/>
      <point x="933" y="-89" type="curve"/>
      <point x="933" y="17" type="line"/>
    </contour>
  </outline>
</glyph>
<glyph name="Xi.smcp" format="2">
  <advance width="821"/>
  <outline>
    <contour>
      <point x="736" y="51" type="line"/>
      <point x="86" y="51" type="line"/>
      <point x="86" y="0" type="line"/>
      <point x="736" y="0" type="line"/>
    </contour>
    <contour>
      <point x="663" y="631" type="line"/>
      <point x="164" y="631" type="line"/>
      <point x="164" y="582" type="line"/>
      <point x="663" y="582" type="line"/>
    </contour>
    <contour>
      <point x="736" y="1165" type="line"/>
      <point x="86" y="1165" type="line"/>
      <point x="86" y="1114" type="line"/>
      <point x="736" y="1114" type="line"/>
    </contour>
  </outline>
</glyph>
<glyph name="YR" format="2">
  <advance width="1183"/>
  <outline>
    <contour>
      <point x="183" y="1413" type="line" name="hr00"/>
      <point x="235" y="1413" type="line"/>
      <point x="235" y="1534" type="line"/>
      <point x="183" y="1534" type="line"/>
    </contour>
    <contour>
      <point x="183" y="1456" type="line"/>
      <point x="183" y="0" type="line"/>
      <point x="235" y="0" type="line"/>
      <point x="235" y="1406" type="line"/>
      <point x="579" y="1406" type="line" smooth="yes"/>
      <point x="795" y="1406"/>
      <point x="934" y="1267"/>
      <point x="934" y="1036" type="curve" smooth="yes"/>
      <point x="934" y="856"/>
      <point x="827" y="675"/>
      <point x="618" y="675" type="curve" smooth="yes"/>
      <point x="198" y="675" type="line"/>
      <point x="200" y="624" type="line"/>
      <point x="669" y="624" type="line"/>
      <point x="696" y="637" type="line"/>
      <point x="858" y="661"/>
      <point x="985" y="825"/>
      <point x="985" y="1036" type="curve" smooth="yes"/>
      <point x="985" y="1308"/>
      <point x="817" y="1456"/>
      <point x="579" y="1456" type="curve" smooth="yes"/>
    </contour>
    <contour>
      <point x="1171" y="-350" type="line"/>
      <point x="1228" y="-350" type="line"/>
      <point x="1228" y="-337" type="line"/>
      <point x="704" y="642" type="line"/>
      <point x="644" y="641" type="line"/>
    </contour>
  </outline>
</glyph>
<glyph name="acutedotcomb.lc" format="2">
  <anchor x="-459" y="1759" name="mkmktop_acc"/>
  <outline>
    <contour>
      <point x="-495" y="1271" type="line"/>
      <point x="-439" y="1271" type="line"/>
      <point x="-271" y="1536" type="line"/>
      <point x="-335" y="1536" type="line"/>
    </contour>
    <contour>
      <point x="-508" y="1645" type="curve" smooth="yes"/>
      <point x="-508" y="1616"/>
      <point x="-487" y="1590"/>
      <point x="-460" y="1590" type="curve" smooth="yes"/>
      <point x="-429" y="1590"/>
      <point x="-410" y="1616"/>
      <point x="-410" y="1645" type="curve" smooth="yes"/>
      <point x="-410" y="1675"/>
      <point x="-429" y="1700"/>
      <point x="-460" y="1700" type="curve" smooth="yes"/>
      <point x="-487" y="1700"/>
      <point x="-508" y="1675"/>
    </contour>
  </outline>
</glyph>
<glyph name="degreecentigrade" format="2">
  <advance width="1504"/>
  <outline>
    <contour>
      <point x="84" y="1236" type="curve"/>
      <point x="84" y="1103"/>
      <point x="175" y="1000"/>
      <point x="286" y="1000" type="curve" smooth="yes"/>
      <point x="394" y="1000"/>
      <point x="484" y="1103"/>
      <point x="484" y="1236" type="curve" smooth="yes"/>
      <point x="484" y="1368"/>
      <point x="394" y="1475"/>
      <point x="286" y="1475" type="curve" smooth="yes"/>
      <point x="175" y="1475"/>
      <point x="84" y="1368"/>
    </contour>
    <contour>
      <point x="135" y="1236" type="curve"/>
      <point x="135" y="1345"/>
      <point x="201" y="1423"/>
      <point x="286" y="1423" type="curve" smooth="yes"/>
      <point x="372" y="1423"/>
      <point x="432" y="1345"/>
      <point x="432" y="1236" type="curve" smooth="yes"/>
      <point x="432" y="1131"/>
      <point x="372" y="1054"/>
      <point x="286" y="1054" type="curve" smooth="yes"/>
      <point x="201" y="1054"/>
      <point x="135" y="1131"/>
    </contour>
    <contour>
      <point x="1333" y="444" type="line"/>
      <point x="1306" y="157"/>
      <point x="1172" y="31"/>
      <point x="942" y="31" type="curve" smooth="yes"/>
      <point x="703" y="31"/>
      <point x="545" y="263"/>
      <point x="545" y="617" type="curve" smooth="yes"/>
      <point x="545" y="840" type="line" smooth="yes"/>
      <point x="545" y="1193"/>
      <point x="705" y="1426"/>
      <point x="944" y="1426" type="curve" smooth="yes"/>
      <point x="1176" y="1426"/>
      <point x="1306" y="1281"/>
      <point x="1333" y="1013" type="curve"/>
      <point x="1385" y="1013" type="line"/>
      <point x="1358" y="1324"/>
      <point x="1194" y="1476"/>
      <point x="944" y="1476" type="curve" smooth="yes"/>
      <point x="671" y="1476"/>
      <point x="494" y="1217"/>
      <point x="494" y="838" type="curve"/>
      <point x="494" y="617" type="line"/>
      <point x="494" y="238"/>
      <point x="671" y="-20"/>
      <point x="942" y="-20" type="curve" smooth="yes"/>
      <point x="1193" y="-20"/>
      <point x="1359" y="130"/>
      <point x="1385" y="444" type="curve"/>
    </contour>
  </outline>
</glyph>
<glyph name="dieresisnosp" format="2">
  <anchor x="-464" y="1290" name="_top"/>
  <anchor x="-464" y="1539" name="top"/>
  <anchor x="-464" y="1424" name="parent_top"/>
  <outline>
    <contour>
      <point x="-701" y="1424" type="curve" smooth="yes"/>
      <point x="-701" y="1393"/>
      <point x="-680" y="1368"/>
      <point x="-652" y="1368" type="curve" smooth="yes"/>
      <point x="-623" y="1368"/>
      <point x="-602" y="1393"/>
      <point x="-602" y="1424" type="curve" smooth="yes"/>
      <point x="-602" y="1452"/>
      <point x="-623" y="1476"/>
      <point x="-652" y="1476" type="curve" smooth="yes"/>
      <point x="-680" y="1476"/>
      <point x="-701" y="1452"/>
    </contour>
    <contour>
      <point x="-325" y="1424" type="curve" smooth="yes"/>
      <point x="-325" y="1393"/>
      <point x="-304" y="1368"/>
      <point x="-276" y="1368" type="curve" smooth="yes"/>
      <point x="-246" y="1368"/>
      <point x="-225" y="1393"/>
      <point x="-225" y="1424" type="curve" smooth="yes"/>
      <point x="-225" y="1453"/>
      <point x="-246" y="1478"/>
      <point x="-276" y="1478" type="curve" smooth="yes"/>
      <point x="-304" y="1478"/>
      <point x="-325" y="1453"/>
    </contour>
  </outline>
</glyph>
<glyph name="f_l" format="2">
  <advance width="947"/>
  <outline>
    <contour>
      <point x="285" y="0" type="line"/>
      <point x="285" y="1239" type="line"/>
      <point x="285" y="1407"/>
      <point x="360" y="1507"/>
      <point x="479" y="1507" type="curve" smooth="yes"/>
      <point x="567" y="1507"/>
      <point x="652" y="1482"/>
      <point x="740" y="1461" type="curve"/>
      <point x="776" y="1496" type="line"/>
      <point x="675" y="1530"/>
      <point x="559" y="1557"/>
      <point x="476" y="1557" type="curve" smooth="yes"/>
      <point x="325" y="1557"/>
      <point x="233" y="1444"/>
      <point x="233" y="1239" type="curve"/>
      <point x="233" y="0" type="line"/>
    </contour>
    <contour>
      <point x="721" y="0" type="line"/>
      <point x="776" y="0" type="line"/>
      <point x="776" y="1496" type="line"/>
      <point x="721" y="1496" type="line"/>
    </contour>
    <contour>
      <point x="526" y="1082" type="line"/>
      <point x="75" y="1082" type="line"/>
      <point x="75" y="1029" type="line"/>
      <point x="526" y="1029" type="line"/>
    </contour>
  </outline>
</glyph>
<glyph name="glottalstoprevinv" format="2">
  <advance width="917"/>
  <anchor x="487" y="1633" name="top"/>
  <anchor x="487" y="0" name="bottom"/>
  <anchor x="898" y="1633" name="top0315"/>
  <anchor x="487" y="1633" name="parent_top"/>
  <outline>
    <contour>
      <point x="478" y="517" type="line"/>
      <point x="253" y="517"/>
      <point x="152" y="733"/>
      <point x="152" y="1006" type="curve" smooth="yes"/>
      <point x="152" y="1043" type="line" smooth="yes"/>
      <point x="152" y="1313"/>
      <point x="253" y="1532"/>
      <point x="478" y="1532" type="curve" smooth="yes"/>
      <point x="625" y="1532"/>
      <point x="759" y="1422"/>
      <point x="768" y="1205" type="curve"/>
      <point x="820" y="1205" type="line"/>
      <point x="812" y="1454"/>
      <point x="655" y="1583"/>
      <point x="478" y="1583" type="curve" smooth="yes"/>
      <point x="237" y="1583"/>
      <point x="101" y="1360"/>
      <point x="101" y="1043" type="curve" smooth="yes"/>
      <point x="101" y="1006" type="line" smooth="yes"/>
      <point x="101" y="688"/>
      <point x="237" y="466"/>
      <point x="478" y="466" type="curve" smooth="yes"/>
      <point x="502" y="466" type="line"/>
      <point x="502" y="517" type="line"/>
    </contour>
    <contour>
      <point x="458" y="0" type="line"/>
      <point x="510" y="0" type="line"/>
      <point x="510" y="517" type="line"/>
      <point x="458" y="517" type="line"/>
    </contour>
  </outline>
</glyph>
<glyph name="jdotlessbar" format="2">
  <advance width="588"/>
  <anchor x="350" y="1295" name="top"/>
  <anchor x="350" y="-447" name="bottom"/>
  <anchor x="569" y="1295" name="top0315"/>
  <anchor x="350" y="1295" name="parent_top"/>
  <outline>
    <contour>
      <point x="536" y="51" type="line"/>
      <point x="85" y="51" type="line"/>
      <point x="85" y="0" type="line"/>
      <point x="536" y="0" type="line"/>
    </contour>
    <contour>
      <point x="324" y="1082" type="line"/>
      <point x="324" y="-129" type="line" smooth="yes"/>
      <point x="324" y="-292"/>
      <point x="255" y="-386"/>
      <point x="133" y="-386" type="curve" smooth="yes"/>
      <point x="103" y="-386"/>
      <point x="71" y="-376"/>
      <point x="52" y="-367" type="curve"/>
      <point x="50" y="-415" type="line"/>
      <point x="77" y="-430"/>
      <point x="105" y="-437"/>
      <point x="133" y="-437" type="curve" smooth="yes"/>
      <point x="286" y="-437"/>
      <point x="375" y="-328"/>
      <point x="375" y="-129" type="curve" smooth="yes"/>
      <point x="375" y="1082" type="line"/>
    </contour>
  </outline>
</glyph>
<glyph name="macronacutecomb.lc" format="2">
  <anchor x="-460" y="1787" name="mkmktop_acc"/>
  <outline>
    <contour>
      <point x="-213" y="1436" type="line"/>
      <point x="-700" y="1436" type="line"/>
      <point x="-700" y="1385" type="line"/>
      <point x="-213" y="1385" type="line"/>
    </contour>
    <contour>
      <point x="-495" y="1517" type="line"/>
      <point x="-439" y="1517" type="line"/>
      <point x="-271" y="1780" type="line"/>
      <point x="-335" y="1780" type="line"/>
    </contour>
  </outline>
</glyph>
<glyph name="ogoneknosp" format="2">
  <anchor x="-404" y="0" name="_bottom"/>
  <outline>
    <contour>
      <point x="-415" y="19" type="line"/>
      <point x="-502" y="-54"/>
      <point x="-586" y="-153"/>
      <point x="-586" y="-248" type="curve" smooth="yes"/>
      <point x="-586" y="-347"/>
      <point x="-537" y="-394"/>
      <point x="-458" y="-394" type="curve" smooth="yes"/>
      <point x="-407" y="-394"/>
      <point x="-373" y="-370"/>
      <point x="-352" y="-350" type="curve"/>
      <point x="-366" y="-304" type="line"/>
      <point x="-385" y="-322"/>
      <point x="-413" y="-343"/>
      <point x="-457" y="-343" type="curve" smooth="yes"/>
      <point x="-519" y="-343"/>
      <point x="-536" y="-295"/>
      <point x="-536" y="-248" type="curve" smooth="yes"/>
      <point x="-536" y="-150"/>
      <point x="-456" y="-74"/>
      <point x="-377" y="0" type="curve"/>
    </contour>
  </outline>
</glyph>
<glyph name="oi" format="2">
  <advance width="1050"/>
  <outline>
    <contour>
      <point x="480" y="30" type="curve" smooth="yes"/>
      <point x="257" y="30"/>
      <point x="154" y="248"/>
      <point x="154" y="520" type="curve" smooth="yes"/>
      <point x="154" y="562" type="line" smooth="yes"/>
      <point x="154" y="834"/>
      <point x="257" y="1051"/>
      <point x="479" y="1051" type="curve"/>
      <point x="556" y="1051"/>
      <point x="633" y="1021"/>
      <point x="687" y="958" type="curve"/>
      <point x="687" y="496" type="line"/>
      <point x="738" y="496" type="line"/>
      <point x="738" y="981" type="line"/>
      <point x="675" y="1063"/>
      <point x="580" y="1102"/>
      <point x="479" y="1102" type="curve" smooth="yes"/>
      <point x="239" y="1102"/>
      <point x="102" y="879"/>
      <point x="102" y="562" type="curve" smooth="yes"/>
      <point x="102" y="520" type="line" smooth="yes"/>
      <point x="102" y="203"/>
      <point x="239" y="-22"/>
      <point x="480" y="-22" type="curve"/>
      <point x="582" y="-22"/>
      <point x="675" y="18"/>
      <point x="738" y="93" type="curve"/>
      <point x="738" y="559" type="line"/>
      <point x="687" y="559" type="line"/>
      <point x="687" y="113" type="line"/>
      <point x="631" y="57"/>
      <point x="555" y="30"/>
    </contour>
    <contour>
      <point x="888" y="1082" type="line"/>
      <point x="844" y="1082" type="line"/>
      <point x="708" y="975" type="line"/>
      <point x="708" y="917" type="line"/>
      <point x="836" y="1020" type="line"/>
      <point x="836" y="-416" type="line"/>
      <point x="888" y="-416" type="line"/>
    </contour>
  </outline>
</glyph>
<glyph name="tccurl" format="2">
  <advance width="1345"/>
  <anchor x="901" y="1600" name="top"/>
  <anchor x="901" y="0" name="bottom"/>
  <anchor x="1326" y="1600" name="top0315"/>
  <anchor x="901" y="1600" name="parent_top"/>
  <outline>
    <contour>
      <point x="933" y="30" type="curve" smooth="yes"/>
      <point x="677" y="30"/>
      <point x="577" y="246"/>
      <point x="577" y="520" type="curve" smooth="yes"/>
      <point x="577" y="562" type="line" smooth="yes"/>
      <point x="577" y="834"/>
      <point x="678" y="1051"/>
      <point x="900" y="1051" type="curve" smooth="yes"/>
      <point x="1050" y="1051"/>
      <point x="1183" y="944"/>
      <point x="1193" y="725" type="curve"/>
      <point x="1244" y="725" type="line"/>
      <point x="1236" y="973"/>
      <point x="1080" y="1102"/>
      <point x="900" y="1102" type="curve" smooth="yes"/>
      <point x="661" y="1102"/>
      <point x="525" y="879"/>
      <point x="525" y="562" type="curve" smooth="yes"/>
      <point x="525" y="520" type="line" smooth="yes"/>
      <point x="525" y="203"/>
      <point x="660" y="-22"/>
      <point x="937" y="-22" type="curve" smooth="yes"/>
      <point x="1081" y="-22"/>
      <point x="1244" y="60"/>
      <point x="1244" y="262" type="curve" smooth="yes"/>
      <point x="1244" y="410"/>
      <point x="1155" y="472"/>
      <point x="1067" y="472" type="curve" smooth="yes"/>
      <point x="812" y="472"/>
      <point x="610" y="29"/>
      <point x="407" y="29" type="curve"/>
      <point x="408" y="-22" type="line"/>
      <point x="633" y="-22"/>
      <point x="831" y="422"/>
      <point x="1065" y="422" type="curve" smooth="yes"/>
      <point x="1138" y="422"/>
      <point x="1194" y="366"/>
      <point x="1194" y="264" type="curve" smooth="yes"/>
      <point x="1194" y="86"/>
      <point x="1044" y="30"/>
    </contour>
    <contour>
      <point x="478" y="1082" type="line"/>
      <point x="50" y="1082" type="line"/>
      <point x="50" y="1029" type="line"/>
      <point x="478" y="1029" type="line"/>
    </contour>
    <contour>
      <point x="219" y="1374" type="line"/>
      <point x="219" y="279" type="line" smooth="yes"/>
      <point x="219" y="61"/>
      <point x="291" y="-22"/>
      <point x="408" y="-22" type="curve"/>
      <point x="407" y="29" type="line"/>
      <point x="336" y="29"/>
      <point x="273" y="86"/>
      <point x="273" y="278" type="curve" smooth="yes"/>
      <point x="273" y="1374" type="line"/>
    </contour>
  </outline>
</glyph>
<glyph name="three.sup" format="2">
  <advance width="656"/>
  <outline>
    <contour>
      <point x="249" y="425" type="line"/>
      <point x="249" y="388" type="line"/>
      <point x="317" y="388" type="line"/>
      <point x="459" y="388"/>
      <point x="546" y="480"/>
      <point x="546" y="583" type="curve"/>
      <point x="546" y="720"/>
      <point x="459" y="800"/>
      <point x="326" y="800" type="curve" smooth="yes"/>
      <point x="201" y="800"/>
      <point x="100" y="713"/>
      <point x="100" y="584" type="curve"/>
      <point x="151" y="584" type="line"/>
      <point x="151" y="689"/>
      <point x="227" y="754"/>
      <point x="327" y="754" type="curve" smooth="yes"/>
      <point x="442" y="754"/>
      <point x="495" y="680"/>
      <point x="495" y="587" type="curve"/>
      <point x="495" y="497"/>
      <point x="431" y="425"/>
      <point x="309" y="425" type="curve" smooth="yes"/>
    </contour>
    <contour>
      <point x="249" y="378" type="line"/>
      <point x="309" y="378" type="line" smooth="yes"/>
      <point x="427" y="378"/>
      <point x="510" y="329"/>
      <point x="510" y="209" type="curve" smooth="yes"/>
      <point x="510" y="101"/>
      <point x="445" y="35"/>
      <point x="331" y="35" type="curve" smooth="yes"/>
      <point x="218" y="35"/>
      <point x="137" y="108"/>
      <point x="137" y="216" type="curve"/>
      <point x="87" y="216" type="line"/>
      <point x="87" y="62"/>
      <point x="213" y="-11"/>
      <point x="330" y="-11" type="curve" smooth="yes"/>
      <point x="463" y="-11"/>
      <point x="561" y="68"/>
      <point x="561" y="211" type="curve" smooth="yes"/>
      <point x="561" y="336"/>
      <point x="475" y="415"/>
      <point x="317" y="415" type="curve" smooth="yes"/>
      <point x="249" y="415" type="line"/>
    </contour>
  </outline>
</glyph>
<glyph name="tildecomb_uni1ABC" format="2">
  <anchor x="-402" y="1261" name="_top"/>
  <anchor x="-402" y="1507" name="top"/>
  <anchor x="-402" y="1507" name="parent_top"/>
  <outline>
    <contour>
      <point x="-826" y="1192" type="curve"/>
      <point x="-822" y="1224" type="line"/>
      <point x="-886" y="1251"/>
      <point x="-938" y="1320"/>
      <point x="-938" y="1408" type="curve" smooth="yes"/>
      <point x="-938" y="1491"/>
      <point x="-891" y="1562"/>
      <point x="-822" y="1588" type="curve"/>
      <point x="-826" y="1618" type="line"/>
      <point x="-910" y="1587"/>
      <point x="-974" y="1500"/>
      <point x="-974" y="1408" type="curve" smooth="yes"/>
      <point x="-974" y="1307"/>
      <point x="-910" y="1226"/>
    </contour>
    <contour>
      <point x="-696" y="1192" type="curve"/>
      <point x="-691" y="1224" type="line"/>
      <point x="-758" y="1251"/>
      <point x="-808" y="1320"/>
      <point x="-808" y="1408" type="curve" smooth="yes"/>
      <point x="-808" y="1491"/>
      <point x="-762" y="1562"/>
      <point x="-691" y="1588" type="curve"/>
      <point x="-696" y="1618" type="line"/>
      <point x="-780" y="1587"/>
      <point x="-844" y="1500"/>
      <point x="-844" y="1408" type="curve" smooth="yes"/>
      <point x="-844" y="1307"/>
      <point x="-780" y="1226"/>
    </contour>
    <contour>
      <point x="-138" y="1192" type="line"/>
      <point x="-53" y="1226"/>
      <point x="10" y="1307"/>
      <point x="10" y="1408" type="curve" smooth="yes"/>
      <point x="10" y="1501"/>
      <point x="-53" y="1587"/>
      <point x="-138" y="1618" type="curve"/>
      <point x="-141" y="1588" type="line"/>
      <point x="-73" y="1562"/>
      <point x="-27" y="1491"/>
      <point x="-27" y="1408" type="curve" smooth="yes"/>
      <point x="-27" y="1321"/>
      <point x="-77" y="1251"/>
      <point x="-141" y="1224" type="curve"/>
    </contour>
    <contour>
      <point x="-9" y="1192" type="line"/>
      <point x="75" y="1226"/>
      <point x="141" y="1307"/>
      <point x="141" y="1408" type="curve" smooth="yes"/>
      <point x="141" y="1501"/>
      <point x="75" y="1587"/>
      <point x="-9" y="1618" type="curve"/>
      <point x="-12" y="1588" type="line"/>
      <point x="57" y="1562"/>
      <point x="103" y="1491"/>
      <point x="103" y="1408" type="curve" smooth="yes"/>
      <point x="103" y="1321"/>
      <point x="51" y="1251"/>
      <point x="-12" y="1224" type="curve"/>
    </contour>
    <contour>
      <point x="-187" y="1472" type="line"/>
      <point x="-187" y="1386"/>
      <point x="-234" y="1339"/>
      <point x="-289" y="1339" type="curve" smooth="yes"/>
      <point x="-384" y="1339"/>
      <point x="-414" y="1466"/>
      <point x="-532" y="1466" type="curve" smooth="yes"/>
      <point x="-617" y="1466"/>
      <point x="-683" y="1396"/>
      <point x="-683" y="1288" type="curve"/>
      <point x="-632" y="1286" type="line"/>
      <point x="-632" y="1372"/>
      <point x="-587" y="1413"/>
      <point x="-530" y="1413" type="curve" smooth="yes"/>
      <point x="-432" y="1413"/>
      <point x="-410" y="1287"/>
      <point x="-289" y="1287" type="curve" smooth="yes"/>
      <point x="-204" y="1287"/>
      <point x="-137" y="1361"/>
      <point x="-137" y="1472" type="curve"/>
    </contour>
  </outline>
</glyph>
<glyph name="uni02E5_uni02E9" format="2">
  <advance width="722"/>
  <outline>
    <contour>
      <point x="534" y="0" type="line"/>
      <point x="534" y="1456" type="line"/>
      <point x="483" y="1456" type="line"/>
      <point x="483" y="176" type="line"/>
      <point x="149" y="1456" type="line"/>
      <point x="101" y="1439" type="line"/>
      <point x="483" y="0" type="line"/>
    </contour>
  </outline>
</glyph>
<glyph name="uni02E7_uni02E7_uni02E9" format="2">
  <advance width="977"/>
  <outline>
    <contour>
      <point x="789" y="1456" type="line"/>
      <point x="737" y="1456" type="line"/>
      <point x="737" y="111" type="line"/>
      <point x="468" y="752" type="line"/>
      <point x="127" y="752" type="line"/>
      <point x="127" y="704" type="line"/>
      <point x="439" y="704" type="line"/>
      <point x="737" y="0" type="line"/>
      <point x="789" y="0" type="line"/>
    </contour>
  </outline>
</glyph>
<glyph name="uni02E8_uni02E9_uni02E8" format="2">
  <advance width="977"/>
  <outline>
    <contour>
      <point x="789" y="1456" type="line"/>
      <point x="737" y="1456" type="line"/>
      <point x="737" y="402" type="line"/>
      <point x="470" y="70" type="line"/>
      <point x="203" y="405" type="line"/>
      <point x="170" y="370" type="line"/>
      <point x="470" y="0" type="line"/>
      <point x="737" y="330" type="line"/>
      <point x="737" y="0" type="line"/>
      <point x="789" y="0" type="line"/>
    </contour>
  </outline>
</glyph>
<glyph name="uni02E9_uni02E7_uni02E9" format="2">
  <advance width="977"/>
  <outline>
    <contour>
      <point x="789" y="1456" type="line"/>
      <point x="737" y="1456" type="line"/>
      <point x="737" y="110" type="line"/>
      <point x="468" y="755" type="line"/>
      <point x="156" y="22" type="line"/>
      <point x="199" y="0" type="line"/>
      <point x="470" y="644" type="line"/>
      <point x="736" y="0" type="line"/>
      <point x="789" y="0" type="line"/>
    </contour>
  </outline>
</glyph>
<glyph name="uni0496.smcp" format="2">
  <advance width="1427"/>
  <outline>
    <contour>
      <point x="1327" y="-331" type="line"/>
      <point x="1327" y="50" type="line"/>
      <point x="1274" y="50" type="line"/>
      <point x="1274" y="-331" type="line"/>
    </contour>
    <contour>
      <point x="713" y="1165" type="line"/>
      <point x="660" y="1165" type="line"/>
      <point x="660" y="0" type="line"/>
      <point x="713" y="0" type="line"/>
    </contour>
    <contour>
      <point x="1267" y="1165" type="line"/>
      <point x="1200" y="1165" type="line"/>
      <point x="844" y="625" type="line"/>
      <point x="698" y="625" type="line"/>
      <point x="701" y="573" type="line"/>
      <point x="869" y="573" type="line"/>
    </contour>
    <contour>
      <point x="1249" y="0" type="line"/>
      <point x="1319" y="0" type="line"/>
      <point x="863" y="625" type="line"/>
      <point x="831" y="575" type="line"/>
    </contour>
    <contour>
      <point x="502" y="573" type="line"/>
      <point x="672" y="573" type="line"/>
      <point x="675" y="625" type="line"/>
      <point x="530" y="625" type="line"/>
      <point x="177" y="1165" type="line"/>
      <point x="107" y="1165" type="line"/>
    </contour>
    <contour>
      <point x="542" y="575" type="line"/>
      <point x="512" y="621" type="line"/>
      <point x="55" y="0" type="line"/>
      <point x="126" y="0" type="line"/>
    </contour>
  </outline>
</glyph>
<glyph name="uni04A0.smcp" format="2">
  <advance width="1130"/>
  <outline>
    <contour>
      <point x="21" y="1165" type="line"/>
      <point x="21" y="1114" type="line"/>
      <point x="361" y="1114" type="line"/>
      <point x="361" y="1165" type="line"/>
    </contour>
    <contour>
      <point x="400" y="1165" type="line"/>
      <point x="346" y="1165" type="line"/>
      <point x="346" y="0" type="line"/>
      <point x="400" y="0" type="line"/>
    </contour>
    <contour>
      <point x="1026" y="1165" type="line"/>
      <point x="956" y="1165" type="line"/>
      <point x="547" y="625" type="line"/>
      <point x="378" y="625" type="line"/>
      <point x="380" y="573" type="line"/>
      <point x="567" y="573" type="line"/>
    </contour>
    <contour>
      <point x="1002" y="0" type="line"/>
      <point x="1073" y="0" type="line"/>
      <point x="567" y="621" type="line"/>
      <point x="538" y="575" type="line"/>
    </contour>
  </outline>
</glyph>
<glyph name="uni04E8.smcp" format="2">
  <advance width="1038"/>
  <anchor x="520" y="1320" name="top"/>
  <anchor x="1019" y="1320" name="top0315"/>
  <anchor x="520" y="1320" name="parent_top"/>
  <outline>
    <contour>
      <point x="879" y="614" type="line"/>
      <point x="159" y="614" type="line"/>
      <point x="159" y="562" type="line"/>
      <point x="879" y="562" type="line"/>
    </contour>
    <contour>
      <point x="922" y="663" type="line"/>
      <point x="922" y="974"/>
      <point x="764" y="1181"/>
      <point x="518" y="1181" type="curve" smooth="yes"/>
      <point x="271" y="1181"/>
      <point x="115" y="974"/>
      <point x="115" y="663" type="curve"/>
      <point x="115" y="501" type="line"/>
      <point x="115" y="190"/>
      <point x="274" y="-16"/>
      <point x="518" y="-16" type="curve" smooth="yes"/>
      <point x="765" y="-16"/>
      <point x="922" y="190"/>
      <point x="922" y="501" type="curve"/>
    </contour>
    <contour>
      <point x="870" y="501" type="line"/>
      <point x="870" y="224"/>
      <point x="742" y="35"/>
      <point x="518" y="35" type="curve" smooth="yes"/>
      <point x="297" y="35"/>
      <point x="167" y="224"/>
      <point x="167" y="501" type="curve" smooth="yes"/>
      <point x="167" y="665" type="line" smooth="yes"/>
      <point x="167" y="940"/>
      <point x="297" y="1129"/>
      <point x="518" y="1129" type="curve" smooth="yes"/>
      <point x="740" y="1129"/>
      <point x="870" y="940"/>
      <point x="870" y="665" type="curve"/>
    </contour>
  </outline>
</glyph>
